<svg xmlns="http://www.w3.org/2000/svg" xmlns:xlink="http://www.w3.org/1999/xlink" fill="none" version="1.1" width="36" height="36" viewBox="0 0 36 36"><defs><clipPath id="master_svg0_84_00891"><rect x="0" y="0" width="36" height="36" rx="0"/></clipPath></defs><g clip-path="url(#master_svg0_84_00891)"><g><path d="M7.5,22.5L7.5,25.5C7.5,27.081,8.925,28.5,10.5,28.5L15,28.5L15,31.5L10.5,31.5C7.18629,31.5,4.5,28.8137,4.5,25.5L4.5,22.5L7.5,22.5ZM27,15L33.6,31.5L30.3675,31.5L28.566,27L22.431,27L20.6325,31.5L17.4015,31.5L24,15L27,15ZM25.5,19.3275L23.6295,24L27.3675,24L25.5,19.3275ZM4.5,4.5L13.5,4.5C15.2743,4.500631213,16.8826,5.5437899999999996,17.6066,7.16361C18.3307,8.783439999999999,18.0354,10.677520000000001,16.8525,12C18.0354,13.32248,18.3307,15.2166,17.6066,16.836399999999998C16.8826,18.456200000000003,15.2743,19.4994,13.5,19.5L4.5,19.5L4.5,4.5ZM13.5,13.5L7.5,13.5L7.5,16.5L13.5,16.5C14.32843,16.5,15,15.8284,15,15C15,14.17157,14.32843,13.5,13.5,13.5ZM25.5,4.5C28.8137,4.5,31.5,7.18629,31.5,10.5L31.5,13.5L28.5,13.5L28.5,10.5C28.5,8.84315,27.1569,7.5,25.5,7.5L21,7.5L21,4.5L25.5,4.5ZM13.5,7.5L7.5,7.5L7.5,10.5L13.5,10.5C14.32843,10.5,15,9.82843,15,9C15,8.17157,14.32843,7.5,13.5,7.5Z" fill="#0F0F0F" fill-opacity="1"/></g></g></svg>