<svg xmlns="http://www.w3.org/2000/svg" xmlns:xlink="http://www.w3.org/1999/xlink" fill="none" version="1.1" width="45.0826416015625" height="45.08262634277344" viewBox="0 0 45.0826416015625 45.08262634277344"><g style="mix-blend-mode:passthrough" transform="matrix(0.7660444378852844,-0.6427876353263855,0.6427876353263855,0.7660444378852844,-13.221626534051211,4.812278422677082)"><g style="mix-blend-mode:passthrough"><ellipse cx="16" cy="36.56919860839844" rx="16" ry="16" fill="#EDC648" fill-opacity="1"/></g><g style="mix-blend-mode:passthrough"><path d="M10.726562,33.56919860839844L12.83854,33.56919860839844C14.143229999999999,33.56919860839844,15.127600000000001,33.019698608398436,15.127600000000001,31.813998608398435C15.127600000000001,31.00929860839844,14.66406,30.550968608398435,14.02344,30.39992860839844L14.02344,30.36867860839844C14.52604,30.183778608398438,14.830729999999999,29.61867860839844,14.830729999999999,29.05096860839844C14.830729999999999,27.931178608398437,13.903649999999999,27.569198608398438,12.6875,27.569198608398438L10.726562,27.569198608398438L10.726562,33.56919860839844ZM11.91146,30.03273860839844L11.91146,28.483258608398437L12.61458,28.483258608398437C13.32812,28.483258608398437,13.67969,28.69679860839844,13.67969,29.233258608398437C13.67969,29.71763860839844,13.35938,30.03273860839844,12.606770000000001,30.03273860839844L11.91146,30.03273860839844ZM11.91146,32.657698608398434L11.91146,30.902528608398438L12.73438,30.902528608398438C13.55208,30.902528608398438,13.97396,31.15513860839844,13.97396,31.74109860839844C13.97396,32.36609860839844,13.533850000000001,32.657698608398434,12.73438,32.657698608398434L11.91146,32.657698608398434ZM16.22656,33.56919860839844L17.411459999999998,33.56919860839844L17.411459999999998,27.569198608398438L16.22656,27.569198608398438L16.22656,33.56919860839844ZM21.4375,33.735898608398436C22.2526,33.735898608398436,22.9583,33.42599860839844,23.3646,33.02489860839844L23.3646,30.269718608398435L21.2526,30.269718608398435L21.2526,31.235868608398437L22.3021,31.235868608398437L22.3021,32.475398608398436C22.1406,32.62909860839844,21.8464,32.71239860839844,21.5651,32.71239860839844C20.398400000000002,32.71239860839844,19.8125,31.889498608398437,19.8125,30.56398860839844C19.8125,29.233258608398437,20.4844,28.420758608398437,21.476599999999998,28.420758608398437C22.005200000000002,28.420758608398437,22.3411,28.649928608398437,22.637999999999998,28.94679860839844L23.2708,28.162948608398438C22.8854,27.772318608398436,22.2943,27.402528608398438,21.4375,27.402528608398438C19.861980000000003,27.402528608398438,18.59635,28.556178608398437,18.59635,30.605658608398436C18.59635,32.66299860839844,19.830730000000003,33.735898608398436,21.4375,33.735898608398436Z" fill="#3D3D3D" fill-opacity="1"/></g><g style="mix-blend-mode:passthrough"><path d="M4.726562,43.56919860839844L6.83854,43.56919860839844C8.143229999999999,43.56919860839844,9.127600000000001,43.019698608398436,9.127600000000001,41.813998608398435C9.127600000000001,41.00929860839844,8.66406,40.550968608398435,8.02344,40.39992860839844L8.02344,40.36867860839844C8.52604,40.18377860839844,8.830729999999999,39.61867860839844,8.830729999999999,39.050968608398435C8.830729999999999,37.93117860839844,7.90365,37.56919860839844,6.6875,37.56919860839844L4.726562,37.56919860839844L4.726562,43.56919860839844ZM5.91146,40.03273860839844L5.91146,38.48325860839844L6.61458,38.48325860839844C7.32812,38.48325860839844,7.67969,38.69679860839844,7.67969,39.23325860839844C7.67969,39.71763860839844,7.35938,40.03273860839844,6.60677,40.03273860839844L5.91146,40.03273860839844ZM5.91146,42.657698608398434L5.91146,40.90252860839844L6.73438,40.90252860839844C7.55208,40.90252860839844,7.97396,41.15513860839844,7.97396,41.74109860839844C7.97396,42.36609860839844,7.53385,42.657698608398434,6.73438,42.657698608398434L5.91146,42.657698608398434ZM10.22656,43.56919860839844L13.82031,43.56919860839844L13.82031,42.57959860839844L11.41146,42.57959860839844L11.41146,37.56919860839844L10.22656,37.56919860839844L10.22656,43.56919860839844ZM14.8932,43.56919860839844L16.0781,43.56919860839844L16.0781,37.56919860839844L14.8932,37.56919860839844L14.8932,43.56919860839844ZM17.5599,43.56919860839844L18.6875,43.56919860839844L18.6875,41.16554860839844C18.6875,40.46502860839844,18.5833,39.709818608398436,18.5365,39.05877860839844L18.575499999999998,39.05877860839844L19.1771,40.35044860839844L20.8802,43.56919860839844L22.0885,43.56919860839844L22.0885,37.56919860839844L20.9688,37.56919860839844L20.9688,39.95200860839844C20.9688,40.66034860839844,21.0651,41.457218608398435,21.1276,42.082198608398436L21.0885,42.082198608398436L20.4896,40.78273860839844L18.7682,37.56919860839844L17.5599,37.56919860839844L17.5599,43.56919860839844ZM23.5599,43.56919860839844L25.2474,43.56919860839844C27,43.56919860839844,28.112,42.57699860839844,28.112,40.543158608398436C28.112,38.51450860839844,27,37.56919860839844,25.1849,37.56919860839844L23.5599,37.56919860839844L23.5599,43.56919860839844ZM24.7448,42.610898608398436L24.7448,38.522318608398436L25.1042,38.522318608398436C26.2161,38.522318608398436,26.9036,39.07700860839844,26.9036,40.543158608398436C26.9036,42.00669860839844,26.2161,42.610898608398436,25.1042,42.610898608398436L24.7448,42.610898608398436Z" fill="#3D3D3D" fill-opacity="1"/></g></g></svg>