<svg xmlns="http://www.w3.org/2000/svg" xmlns:xlink="http://www.w3.org/1999/xlink" fill="none" version="1.1" width="40.02579116821289" height="33.35527420043945" viewBox="0 0 40.02579116821289 33.35527420043945"><g><path d="M28.9631,29.7525C26.3981,31.7282,23.2506,32.798,20.0129,32.7944C16.7757,32.7993,13.6282,31.7311,11.0627,29.7569L8.68339,32.6032C7.9368,33.4943,6.60855,33.6099,5.71926,32.8612L5.70814,32.8545C4.82085,32.1068,4.7055,30.7823,5.4502,29.8926L8.10302,26.7172C6.25448,24.1813,5.26075,21.123,5.26563,17.9849C5.26563,9.80632,11.8699,3.17538,20.0129,3.17538C28.1581,3.17538,34.7602,9.80632,34.7602,17.9849C34.7651,21.123,33.7713,24.1813,31.9228,26.7172L34.5756,29.8926C35.3205,30.782,35.2049,32.1073,34.3177,32.8545L34.3065,32.8612C33.4165,33.6101,32.0876,33.4946,31.3402,32.6032L28.9609,29.7569L28.9631,29.7525ZM20.5399,17.4557L20.5399,11.6342C20.5424,10.7598,19.8355,10.0489,18.9611,10.0465C18.0872,10.0465,17.3801,10.758,17.3801,11.6342L17.3801,19.0389C17.3801,19.915,18.0872,20.6244,18.9589,20.6244L24.2267,20.6244C25.0984,20.6244,25.8055,19.9128,25.8055,19.0389C25.808,18.1645,25.1011,17.4537,24.2267,17.4512L20.5399,17.4512L20.5399,17.4557ZM29.0743,2.02575C30.2671,0.732518,31.9469,-0.0021469,33.7062,0C37.2038,0.00735993,40.0332,2.8487,40.0258,6.34631C40.0288,8.51323,38.9263,10.532,37.1017,11.7009C35.7638,7.56728,32.8904,4.10487,29.0743,2.02797L29.0743,2.02575ZM10.9515,2.02575C7.13538,4.10264,4.26197,7.56505,2.92413,11.6986C1.10014,10.5302,-0.00222035,8.51244,0.0000222476,6.34631C-0.00735289,2.8487,2.82204,0.00735825,6.31965,0C8.14971,0,9.79744,0.780502,10.9515,2.02797L10.9515,2.02575Z" fill="#1BCE7D" fill-opacity="1"/></g></svg>