<svg xmlns="http://www.w3.org/2000/svg" xmlns:xlink="http://www.w3.org/1999/xlink" fill="none" version="1.1" width="14" height="14" viewBox="0 0 14 14"><g><path d="M8.39773,6.67645e-7C11.0369,-0.00125868,13.3187,1.84119,13.8741,4.42201C14.4295,7.00284,13.1077,9.6212,10.7017,10.7063C9.08883,14.2731,4.40856,15.1265,1.64117,12.3584C-1.12622,9.59021,-0.273063,4.90862,3.2928,3.29526C4.1988,1.28926,6.19608,8.34556e-7,8.39773,6.67645e-7ZM6.29809,4.90054L4.89833,4.90054L4.89833,5.60061C3.9527,5.59831,3.17634,6.34798,3.14531,7.29337C3.11428,8.23876,3.8398,9.03775,4.78355,9.0975L4.89833,9.101L6.29809,9.101L6.36108,9.1066C6.52759,9.13676,6.64867,9.28177,6.64867,9.45104C6.64867,9.6203,6.52759,9.76532,6.36108,9.79547L6.29809,9.80107L3.49857,9.80107L3.49857,11.2012L4.89833,11.2012L4.89833,11.9013L6.29809,11.9013L6.29809,11.2012C7.24372,11.2035,8.02008,10.4539,8.05111,9.50847C8.08214,8.56308,7.35662,7.76409,6.41287,7.70434L6.29809,7.70084L4.89833,7.70084L4.83534,7.69524C4.66883,7.66509,4.54775,7.52007,4.54775,7.35081C4.54775,7.18154,4.66883,7.03653,4.83534,7.00637L4.89833,7.00077L7.69785,7.00077L7.69785,5.60061L6.29809,5.60061L6.29809,4.90054ZM8.39773,1.40015C7.19817,1.39875,6.05557,1.91184,5.25947,2.80941C8.61443,2.60568,11.3915,5.38388,11.1875,8.73976C12.4903,7.58111,12.9419,5.7378,12.3224,4.10786C11.7026,2.47771,10.1407,1.40015,8.39773,1.40015Z" fill="#EE914E" fill-opacity="1"/></g></svg>