<svg xmlns="http://www.w3.org/2000/svg" xmlns:xlink="http://www.w3.org/1999/xlink" fill="none" version="1.1" width="29" height="28" viewBox="0 0 29 28"><g><path d="M17.3953,0.00000133529C22.8622,-0.00251736,27.5887,3.68237,28.7391,8.84402C29.8896,14.0057,27.1517,19.2424,22.1679,21.4125C18.8269,28.5463,9.13201,30.2531,3.39956,24.7167C-2.33289,19.1804,-0.565631,9.81724,6.82081,6.59052C8.69752,2.57851,12.8347,0.00000166911,17.3953,0.00000133529ZM13.046,9.80107L10.1465,9.80107L10.1465,11.2012C8.18773,11.1966,6.57957,12.696,6.51529,14.5867C6.45101,16.4775,7.95388,18.0755,9.90878,18.195L10.1465,18.202L13.046,18.202L13.1765,18.2132C13.5214,18.2735,13.7722,18.5635,13.7722,18.9021C13.7722,19.2406,13.5214,19.5306,13.1765,19.5909L13.046,19.6021L7.24704,19.6021L7.24704,22.4025L10.1465,22.4025L10.1465,23.8026L13.046,23.8026L13.046,22.4025C15.0049,22.4071,16.613,20.9077,16.6773,19.0169C16.7416,17.1262,15.2387,15.5282,13.2838,15.4087L13.046,15.4017L10.1465,15.4017L10.0161,15.3905C9.67115,15.3302,9.42033,15.0401,9.42033,14.7016C9.42033,14.3631,9.67115,14.073,10.0161,14.0127L10.1465,14.0015L15.9455,14.0015L15.9455,11.2012L13.046,11.2012L13.046,9.80107ZM17.3953,2.80031C14.9105,2.7975,12.5437,3.82368,10.8946,5.61882C17.8442,5.21137,23.5967,10.7678,23.174,17.4795C25.8727,15.1622,26.8083,11.4756,25.525,8.21571C24.2411,4.95543,21.0058,2.80031,17.3953,2.80031Z" fill="#FFFFFF" fill-opacity="1"/></g></svg>