<svg xmlns="http://www.w3.org/2000/svg" xmlns:xlink="http://www.w3.org/1999/xlink" fill="none" version="1.1" width="15" height="15" viewBox="0 0 15 15"><g><path d="M8.99757,7.15334e-7C11.8253,-0.00134858,14.27,1.9727,14.8651,4.73787C15.4601,7.50304,14.044,10.3084,11.4661,11.471C9.73803,15.2927,4.72345,16.207,1.75839,13.2411C-1.20667,10.2752,-0.292568,5.25924,3.528,3.53064C4.49871,1.38134,6.63865,8.94168e-7,8.99757,7.15334e-7ZM6.74795,5.25058L5.24821,5.25058L5.24821,6.00066C4.23503,5.99819,3.40322,6.8014,3.36998,7.81432C3.33673,8.82724,4.11407,9.6833,5.12523,9.74732L5.24821,9.75107L6.74795,9.75107L6.81544,9.75707C6.99384,9.78938,7.12358,9.94475,7.12358,10.1261C7.12358,10.3075,6.99384,10.4628,6.81544,10.4952L6.74795,10.5012L3.74847,10.5012L3.74847,12.0013L5.24821,12.0013L5.24821,12.7514L6.74795,12.7514L6.74795,12.0013C7.76113,12.0038,8.59294,11.2006,8.62619,10.1877C8.65944,9.17473,7.88209,8.31867,6.87093,8.25465L6.74795,8.2509L5.24821,8.2509L5.18072,8.2449C5.00232,8.21259,4.87259,8.05722,4.87259,7.87586C4.87259,7.69451,5.00232,7.53913,5.18072,7.50682L5.24821,7.50082L8.2477,7.50082L8.2477,6.00066L6.74795,6.00066L6.74795,5.25058ZM8.99757,1.50016C7.71232,1.49866,6.48811,2.0484,5.63514,3.01008C9.22974,2.79181,12.2052,5.76844,11.9866,9.36403C13.3824,8.12262,13.8664,6.14764,13.2026,4.40127C12.5385,2.65469,10.8651,1.50017,8.99757,1.50016Z" fill="#FFC300" fill-opacity="1"/></g></svg>