<svg xmlns="http://www.w3.org/2000/svg" xmlns:xlink="http://www.w3.org/1999/xlink" fill="none" version="1.1" width="24" height="21.51313591003418" viewBox="0 0 24 21.51313591003418"><g style="mix-blend-mode:passthrough"><path d="M6.42055,7.00674L1.73386,3.88229C1.37187,3.64153,0.902992,3.63293,0.532412,3.86026C0.161831,4.08759,-0.0429781,4.50945,0.00760252,4.94125L1.84099,20.5278C1.90718,21.0897,2.38333,21.5131,2.94905,21.5131L21.0508,21.5131C21.6164,21.5131,22.0926,21.0897,22.1589,20.5278L23.9923,4.94237C24.0433,4.51038,23.8387,4.08808,23.468,3.86044C23.0973,3.6328,22.6282,3.64133,22.266,3.88229L17.5793,7.00674L12.9083,0.467704C12.4633,-0.155901,11.5366,-0.155901,11.0916,0.467704L6.42055,7.00674Z" fill-rule="evenodd" fill="#D8D8D8" fill-opacity="1"/></g></svg>