<svg xmlns="http://www.w3.org/2000/svg" xmlns:xlink="http://www.w3.org/1999/xlink" fill="none" version="1.1" width="37.20000076293945" height="36" viewBox="0 0 37.20000076293945 36"><defs><clipPath id="master_svg0_70_658"><rect x="0" y="0" width="37.20000076293945" height="36" rx="0"/></clipPath></defs><g clip-path="url(#master_svg0_70_658)"><g><path d="M27.900146484375,12L31.000146484375,12C31.856146484375,12,32.550146484375,12.6716,32.550146484375,13.5L32.550146484375,31.5C32.550146484375,32.3284,31.856146484375,33,31.000146484375,33L6.200146484375,33C5.3441054843749995,33,4.650146484375,32.3284,4.650146484375,31.5L4.650146484375,13.5C4.650146484375,12.6716,5.3441054843749995,12,6.200146484375,12L9.300146484375,12L9.300146484375,10.5C9.300146484375,5.52944,13.463896484375,1.5,18.600146484375,1.5C23.736346484375,1.5,27.900146484375,5.52944,27.900146484375,10.5L27.900146484375,12ZM17.050146484375,23.598L17.050146484375,27L20.150146484375,27L20.150146484375,23.598C21.819346484375,22.6654,22.213846484375,20.5004,20.974846484375,19.0716C19.735946484375,17.6427,17.464346484375,17.6427,16.225446484375,19.0716C14.986446484375,20.5004,15.380946484375,22.6654,17.050146484375,23.598ZM24.800146484375,12L24.800146484375,10.5C24.800146484375,7.18629,22.024346484375,4.5,18.600146484375,4.5C15.175946484375,4.5,12.400146484375,7.18629,12.400146484375,10.5L12.400146484375,12L24.800146484375,12Z" fill="#050505" fill-opacity="1"/></g></g></svg>