<svg xmlns="http://www.w3.org/2000/svg" xmlns:xlink="http://www.w3.org/1999/xlink" fill="none" version="1.1" width="38" height="38" viewBox="0 0 38 38"><defs><clipPath id="master_svg0_141_7063"><rect x="0" y="0" width="38" height="38" rx="0"/></clipPath></defs><g clip-path="url(#master_svg0_141_7063)"><g><path d="M18.999956494140626,34.833371752929686C10.255236494140625,34.833371752929686,3.166656494140625,27.744771752929687,3.166656494140625,18.99997175292969C3.166656494140625,10.255251752929688,10.255236494140625,3.1666717529296875,18.999956494140626,3.1666717529296875C27.744756494140624,3.1666717529296875,34.833356494140624,10.255251752929688,34.833356494140624,18.99997175292969C34.833356494140624,27.744771752929687,27.744756494140624,34.833371752929686,18.999956494140626,34.833371752929686ZM26.631656494140625,27.036971752929688C30.579556494140625,23.295071752929687,31.228456494140627,17.241271752929688,28.163456494140625,12.747591752929688C25.098356494140624,8.253901752929687,19.225356494140627,6.648631752929687,14.300656494140625,8.958501752929688L15.844456494140625,11.737251752929687C21.073656494140625,9.464521752929688,26.918256494140625,13.298171752929688,26.916656494140625,18.99997175292969L22.166656494140625,18.99997175292969L26.631656494140625,27.036971752929688ZM23.699356494140623,29.041471752929688L22.155556494140626,26.262771752929687C16.926356494140627,28.535471752929688,11.081756494140624,24.701771752929687,11.083326494140625,18.99997175292969L15.833356494140626,18.99997175292969L11.368326494140625,10.963001752929689C7.420436494140625,14.704971752929687,6.771486494140625,20.758771752929686,9.836546494140624,25.252471752929686C12.901606494140625,29.746071752929687,18.774656494140626,31.351371752929687,23.699356494140623,29.041471752929688Z" fill="#EE914E" fill-opacity="1"/></g></g></svg>