<svg xmlns="http://www.w3.org/2000/svg" xmlns:xlink="http://www.w3.org/1999/xlink" fill="none" version="1.1" width="30" height="30" viewBox="0 0 30 30"><defs><clipPath id="master_svg0_84_00924"><rect x="0" y="0" width="30" height="30" rx="0"/></clipPath></defs><g clip-path="url(#master_svg0_84_00924)"><g><path d="M16.25,5.06875C21.875,5.69,26.25,10.45875,26.25,16.25L26.25,27.5L3.75,27.5L3.75,16.25C3.75,10.45875,8.125,5.69,13.75,5.06875L13.75,1.25L16.25,1.25L16.25,5.06875ZM15,22.5C18.4518,22.5,21.25,19.7018,21.25,16.25C21.25,12.7982,18.4518,10,15,10C11.54822,10,8.75,12.7982,8.75,16.25C8.75,19.7018,11.54822,22.5,15,22.5ZM15,20C12.92893,20,11.25,18.3211,11.25,16.25C11.25,14.1789,12.92893,12.5,15,12.5C17.0711,12.5,18.75,14.1789,18.75,16.25C18.75,18.3211,17.0711,20,15,20ZM15,17.5C15.6904,17.5,16.25,16.9404,16.25,16.25C16.25,15.5596,15.6904,15,15,15C14.3096,15,13.75,15.5596,13.75,16.25C13.75,16.9404,14.3096,17.5,15,17.5Z" fill="#FFFFFF" fill-opacity="1"/></g></g></svg>