<svg xmlns="http://www.w3.org/2000/svg" xmlns:xlink="http://www.w3.org/1999/xlink" fill="none" version="1.1" width="45.0826416015625" height="45.08262634277344" viewBox="0 0 45.0826416015625 45.08262634277344"><g style="mix-blend-mode:passthrough" transform="matrix(0.7660444378852844,-0.6427875757217407,0.6427875757217407,0.7660444378852844,-13.221625308031435,4.812278422677082)"><g style="mix-blend-mode:passthrough"><ellipse cx="16" cy="36.56919860839844" rx="16" ry="16" fill="#526FE7" fill-opacity="1"/></g><g style="mix-blend-mode:passthrough"><path d="M6.49479,34.735898608398436C7.86198,34.735898608398436,8.67188,33.91299860839844,8.67188,32.910298608398435C8.67188,32.01450860839844,8.19792,31.527528608398438,7.47917,31.22023860839844L6.70312,30.892118608398437C6.19792,30.675968608398435,5.78385,30.517118608398437,5.78385,30.07179860839844C5.78385,29.662948608398438,6.10417,29.420758608398437,6.6224,29.420758608398437C7.11979,29.420758608398437,7.51042,29.610868608398437,7.88802,29.931178608398437L8.486979999999999,29.170758608398437C8.00781,28.683778608398438,7.31771,28.402528608398438,6.6224,28.402528608398438C5.42969,28.402528608398438,4.575521,29.15513860839844,4.575521,30.147318608398436C4.575521,31.050968608398435,5.18229,31.55357860839844,5.78385,31.80357860839844L6.56771,32.16554860839844C7.09375,32.39992860839844,7.46354,32.54054860839844,7.46354,33.001498608398435C7.46354,33.436398608398434,7.13542,33.71239860839844,6.51823,33.71239860839844C6,33.71239860839844,5.42969,33.436398608398434,5.01562,33.02749860839844L4.335938,33.873898608398434C4.911458,34.43379860839843,5.70312,34.735898608398436,6.49479,34.735898608398436ZM9.72656,34.56919860839844L10.79167,34.56919860839844L10.79167,32.06919860839844C10.79167,31.50929860839844,10.69531,30.662948608398438,10.638020000000001,30.08221860839844L10.67188,30.08221860839844L11.143229999999999,31.52492860839844L12.0625,34.05099860839844L12.74219,34.05099860839844L13.65625,31.52492860839844L14.1354,30.08221860839844L14.1745,30.08221860839844C14.112,30.662948608398438,14.0234,31.50929860839844,14.0234,32.09784860839844L14.0234,34.56919860839844L15.1042,34.56919860839844L15.1042,28.569198608398438L13.79167,28.569198608398438L12.79948,31.39992860839844C12.67969,31.77492860839844,12.57552,32.18117860839844,12.44792,32.56919860839844L12.40625,32.56919860839844C12.28646,32.18117860839844,12.17448,31.77492860839844,12.04688,31.39992860839844L11.03906,28.569198608398438L9.72656,28.569198608398438L9.72656,34.56919860839844ZM15.7995,34.56919860839844L17,34.56919860839844L17.4167,32.99109860839844L19.3281,32.99109860839844L19.744799999999998,34.56919860839844L20.9922,34.56919860839844L19.0964,28.569198608398438L17.6953,28.569198608398438L15.7995,34.56919860839844ZM17.6719,32.06919860839844L17.849,31.420758608398437C18.023400000000002,30.800968608398435,18.192700000000002,30.12648860839844,18.351599999999998,29.475448608398438L18.3854,29.475448608398438C18.5599,30.110868608398437,18.7214,30.800968608398435,18.9036,31.420758608398437L19.0807,32.06919860839844L17.6719,32.06919860839844ZM21.7266,34.56919860839844L25.3203,34.56919860839844L25.3203,33.57959860839844L22.9115,33.57959860839844L22.9115,28.569198608398438L21.7266,28.569198608398438L21.7266,34.56919860839844ZM26.3932,34.56919860839844L29.987,34.56919860839844L29.987,33.57959860839844L27.5781,33.57959860839844L27.5781,28.569198608398438L26.3932,28.569198608398438L26.3932,34.56919860839844Z" fill="#FFFFFF" fill-opacity="1"/></g><g style="mix-blend-mode:passthrough"><path d="M5.726562,44.56919860839844L7.83854,44.56919860839844C9.143229999999999,44.56919860839844,10.127600000000001,44.019698608398436,10.127600000000001,42.813998608398435C10.127600000000001,42.00929860839844,9.66406,41.550968608398435,9.02344,41.39992860839844L9.02344,41.36867860839844C9.52604,41.18377860839844,9.830729999999999,40.61867860839844,9.830729999999999,40.050968608398435C9.830729999999999,38.93117860839844,8.903649999999999,38.56919860839844,7.6875,38.56919860839844L5.726562,38.56919860839844L5.726562,44.56919860839844ZM6.91146,41.03273860839844L6.91146,39.48325860839844L7.61458,39.48325860839844C8.32812,39.48325860839844,8.67969,39.69679860839844,8.67969,40.23325860839844C8.67969,40.71763860839844,8.35938,41.03273860839844,7.60677,41.03273860839844L6.91146,41.03273860839844ZM6.91146,43.657698608398434L6.91146,41.90252860839844L7.73438,41.90252860839844C8.55208,41.90252860839844,8.97396,42.15513860839844,8.97396,42.74109860839844C8.97396,43.36609860839844,8.533850000000001,43.657698608398434,7.73438,43.657698608398434L6.91146,43.657698608398434ZM11.22656,44.56919860839844L14.82031,44.56919860839844L14.82031,43.57959860839844L12.41146,43.57959860839844L12.41146,38.56919860839844L11.22656,38.56919860839844L11.22656,44.56919860839844ZM15.8932,44.56919860839844L17.0781,44.56919860839844L17.0781,38.56919860839844L15.8932,38.56919860839844L15.8932,44.56919860839844ZM18.5599,44.56919860839844L19.6875,44.56919860839844L19.6875,42.16554860839844C19.6875,41.46502860839844,19.5833,40.709818608398436,19.5365,40.05877860839844L19.575499999999998,40.05877860839844L20.1771,41.35044860839844L21.8802,44.56919860839844L23.0885,44.56919860839844L23.0885,38.56919860839844L21.9688,38.56919860839844L21.9688,40.95200860839844C21.9688,41.66034860839844,22.0651,42.457218608398435,22.1276,43.082198608398436L22.0885,43.082198608398436L21.4896,41.78273860839844L19.7682,38.56919860839844L18.5599,38.56919860839844L18.5599,44.56919860839844ZM24.5599,44.56919860839844L26.2474,44.56919860839844C28,44.56919860839844,29.112,43.57699860839844,29.112,41.543158608398436C29.112,39.51450860839844,28,38.56919860839844,26.1849,38.56919860839844L24.5599,38.56919860839844L24.5599,44.56919860839844ZM25.7448,43.610898608398436L25.7448,39.522318608398436L26.1042,39.522318608398436C27.2161,39.522318608398436,27.9036,40.07700860839844,27.9036,41.543158608398436C27.9036,43.00669860839844,27.2161,43.610898608398436,26.1042,43.610898608398436L25.7448,43.610898608398436Z" fill="#FFFFFF" fill-opacity="1"/></g></g></svg>