<svg xmlns="http://www.w3.org/2000/svg" xmlns:xlink="http://www.w3.org/1999/xlink" fill="none" version="1.1" width="23" height="21.999996185302734" viewBox="0 0 23 21.999996185302734"><g style="mix-blend-mode:passthrough"><path d="M17.9663,7.16607C17.9886,6.94708,18,6.72487,18,6.5C18,2.91015,15.0899,0,11.5,0C7.91015,0,5,2.91015,5,6.5C5,6.72487,5.01142,6.94708,5.03371,7.16606C2.15004,7.83093,0,10.4144,0,13.5C0,17.0899,2.91015,20,6.5,20C8.44371,20,10.1882,19.1468,11.3793,17.7946C11.0187,19.3726,9.942,20.7859,8,22L14.5,22C13.2575,21.4805,12.3237,20.1311,11.7173,17.9018C12.9051,19.1918,14.6082,20,16.5,20C20.0899,20,23,17.0899,23,13.5C23,10.4144,20.85,7.83093,17.9663,7.16607Z" fill-rule="evenodd" fill="#000000" fill-opacity="1"/></g></svg>