<svg xmlns="http://www.w3.org/2000/svg" xmlns:xlink="http://www.w3.org/1999/xlink" fill="none" version="1.1" width="17.999998092651367" height="21.999996185302734" viewBox="0 0 17.999998092651367 21.999996185302734"><g style="mix-blend-mode:passthrough"><path d="M8.92206,17.089C6.92386,19.0627,3.89262,18.9684,1.99374,16.7891C0.07107000000000002,14.5806,0.0047719999999999985,11.0634,1.79314,8.7692L9.001,0.5L16.2072,8.7692C17.9955,11.0634,17.9284,14.5865,16.0066,16.7891C14.1305,18.9374,11.1584,19.0626,9.15481,17.1645C9.75876,19.5356,10.714,20.9623,12,21.5L5.5,21.5C7.52596,20.2334,8.61017,18.75,8.92206,17.089Z" fill-rule="evenodd" fill="#000000" fill-opacity="1"/><path d="M9.49846,16.5392Q9.2461,19.7477,5.76506,21.924L5.5,21.5L5.5,21L12,21L12,21.5L11.8071,21.9613Q9.43948,20.9714,8.51093,16.604L9,16.5L9.49846,16.5392ZM8.50154,16.4608L8.77194,13.023L9.48907,16.396Q10.30865,20.2509,12.1929,21.0387L14.492,22L3.75705,22L5.23494,21.076Q8.288689999999999,19.1669,8.50154,16.4608ZM16.383200000000002,17.118Q14.7993,18.9317,12.5466,18.9979Q10.30015,19.0638,8.64108,17.36L8.9993,17.0111L9.3578,17.3597Q7.70229,19.0625,5.45474,18.9979Q3.1986,18.933,1.61677,17.1176Q0.059917,15.3293,0.001933000000000018,12.8229Q-0.055786,10.3278,1.398793,8.4618L1.407219,8.451L9.00104,-0.261L16.5931,8.45101L16.6015,8.4618Q18.056,10.32766,17.9981,12.8251Q17.9399,15.3338,16.3833,17.1178L16.383200000000002,17.118ZM15.6298,16.4604Q16.9485,14.949,16.9983,12.8019Q17.048,10.6611,15.8128,9.0766L16.2072,8.7692L15.8302,9.09769L8.62405,0.8284929999999999L9.001,0.5L9.37791,0.8285370000000001L2.17005,9.09774L1.79314,8.7692L2.18748,9.0766Q0.952196,10.6613,1.001666,12.7997Q1.051296,14.9451,2.37071,16.4606Q3.66495,17.946,5.48348,17.9983Q7.29168,18.0503,8.64081,16.6626L8.99903,16.2941L9.35753,16.6623Q10.7101,18.0513,12.5173,17.9983Q14.3334,17.945,15.63,16.4602L15.6298,16.4604Z" fill="#000000" fill-opacity="1"/></g></svg>