<svg xmlns="http://www.w3.org/2000/svg" xmlns:xlink="http://www.w3.org/1999/xlink" fill="none" version="1.1" width="42" height="58" viewBox="0 0 42 58"><g style="mix-blend-mode:passthrough"><g style="mix-blend-mode:passthrough"><rect x="0" y="0" width="42" height="58" rx="5" fill="#FFFFFF" fill-opacity="1"/><rect x="0.5" y="0.5" width="41" height="57" rx="4.5" fill-opacity="0" stroke-opacity="1" stroke="#51AEFA" fill="none" stroke-width="1"/></g><g><path d="M6.2,6.2L15.8,6.2L15.8,15.8L6.2,15.8L6.2,6.2ZM6.2,3L7.8,3L7.8,5.4L6.2,5.4L6.2,3ZM6.2,16.6L7.8,16.6L7.8,19L6.2,19L6.2,16.6ZM3,6.2L5.4,6.2L5.4,7.8L3,7.8L3,6.2ZM3,14.2L5.4,14.2L5.4,15.8L3,15.8L3,14.2ZM16.6,6.2L19,6.2L19,7.8L16.6,7.8L16.6,6.2ZM16.6,14.2L19,14.2L19,15.8L16.6,15.8L16.6,14.2ZM14.2,3L15.8,3L15.8,5.4L14.2,5.4L14.2,3ZM14.2,16.6L15.8,16.6L15.8,19L14.2,19L14.2,16.6Z" fill="#51AEFA" fill-opacity="1"/></g><g><path d="M26.2,6.2L35.8,6.2L35.8,15.8L26.2,15.8L26.2,6.2ZM26.2,3L27.8,3L27.8,5.4L26.2,5.4L26.2,3ZM26.2,16.6L27.8,16.6L27.8,19L26.2,19L26.2,16.6ZM23,6.2L25.4,6.2L25.4,7.8L23,7.8L23,6.2ZM23,14.2L25.4,14.2L25.4,15.8L23,15.8L23,14.2ZM36.6,6.2L39,6.2L39,7.8L36.6,7.8L36.6,6.2ZM36.6,14.2L39,14.2L39,15.8L36.6,15.8L36.6,14.2ZM34.2,3L35.8,3L35.8,5.4L34.2,5.4L34.2,3ZM34.2,16.6L35.8,16.6L35.8,19L34.2,19L34.2,16.6Z" fill="#51AEFA" fill-opacity="1"/></g><g><path d="M26.2,24.2L35.8,24.2L35.8,33.8L26.2,33.8L26.2,24.2ZM26.2,21L27.8,21L27.8,23.4L26.2,23.4L26.2,21ZM26.2,34.6L27.8,34.6L27.8,37L26.2,37L26.2,34.6ZM23,24.2L25.4,24.2L25.4,25.8L23,25.8L23,24.2ZM23,32.2L25.4,32.2L25.4,33.8L23,33.8L23,32.2ZM36.6,24.2L39,24.2L39,25.8L36.6,25.8L36.6,24.2ZM36.6,32.2L39,32.2L39,33.8L36.6,33.8L36.6,32.2ZM34.2,21L35.8,21L35.8,23.4L34.2,23.4L34.2,21ZM34.2,34.6L35.8,34.6L35.8,37L34.2,37L34.2,34.6Z" fill="#51AEFA" fill-opacity="1"/></g><g><path d="M26.2,42.2L35.8,42.2L35.8,51.8L26.2,51.8L26.2,42.2ZM26.2,39L27.8,39L27.8,41.4L26.2,41.4L26.2,39ZM26.2,52.6L27.8,52.6L27.8,55L26.2,55L26.2,52.6ZM23,42.2L25.4,42.2L25.4,43.8L23,43.8L23,42.2ZM23,50.2L25.4,50.2L25.4,51.8L23,51.8L23,50.2ZM36.6,42.2L39,42.2L39,43.8L36.6,43.8L36.6,42.2ZM36.6,50.2L39,50.2L39,51.8L36.6,51.8L36.6,50.2ZM34.2,39L35.8,39L35.8,41.4L34.2,41.4L34.2,39ZM34.2,52.6L35.8,52.6L35.8,55L34.2,55L34.2,52.6Z" fill="#51AEFA" fill-opacity="1"/></g><g><path d="M6.2,42.2L15.8,42.2L15.8,51.8L6.2,51.8L6.2,42.2ZM6.2,39L7.8,39L7.8,41.4L6.2,41.4L6.2,39ZM6.2,52.6L7.8,52.6L7.8,55L6.2,55L6.2,52.6ZM3,42.2L5.4,42.2L5.4,43.8L3,43.8L3,42.2ZM3,50.2L5.4,50.2L5.4,51.8L3,51.8L3,50.2ZM16.6,42.2L19,42.2L19,43.8L16.6,43.8L16.6,42.2ZM16.6,50.2L19,50.2L19,51.8L16.6,51.8L16.6,50.2ZM14.2,39L15.8,39L15.8,41.4L14.2,41.4L14.2,39ZM14.2,52.6L15.8,52.6L15.8,55L14.2,55L14.2,52.6Z" fill="#51AEFA" fill-opacity="1"/></g><g><path d="M6.2,24.2L15.8,24.2L15.8,33.8L6.2,33.8L6.2,24.2ZM6.2,21L7.8,21L7.8,23.4L6.2,23.4L6.2,21ZM6.2,34.6L7.8,34.6L7.8,37L6.2,37L6.2,34.6ZM3,24.2L5.4,24.2L5.4,25.8L3,25.8L3,24.2ZM3,32.2L5.4,32.2L5.4,33.8L3,33.8L3,32.2ZM16.6,24.2L19,24.2L19,25.8L16.6,25.8L16.6,24.2ZM16.6,32.2L19,32.2L19,33.8L16.6,33.8L16.6,32.2ZM14.2,21L15.8,21L15.8,23.4L14.2,23.4L14.2,21ZM14.2,34.6L15.8,34.6L15.8,37L14.2,37L14.2,34.6Z" fill="#51AEFA" fill-opacity="1"/></g></g></svg>