<svg xmlns="http://www.w3.org/2000/svg" xmlns:xlink="http://www.w3.org/1999/xlink" fill="none" version="1.1" width="75.99728393554688" height="75.99728393554688" viewBox="0 0 75.99728393554688 75.99728393554688"><g style="mix-blend-mode:passthrough"><g><path d="M75.9973,37.9987Q75.9973,38.9315,75.9515,39.8632Q75.9057,40.7948,75.8143,41.7232Q75.7229,42.6515,75.586,43.5742Q75.4491,44.4969,75.2671,45.4118Q75.0852,46.3267,74.8585,47.2316Q74.6318,48.1364,74.3611,49.0291Q74.0903,49.9217,73.776,50.8Q73.4618,51.6783,73.1048,52.5401Q72.7478,53.4019,72.349,54.2452Q71.9502,55.0884,71.5104,55.9111Q71.0707,56.7337,70.5912,57.5338Q70.1116,58.3339,69.5934,59.1096Q69.0751,59.8852,68.5194,60.6344Q67.9638,61.3836,67.372,62.1047Q66.7802,62.8258,66.1538,63.517Q65.5273,64.2081,64.8677,64.8677Q64.2081,65.5273,63.517,66.1538Q62.8258,66.7802,62.1047,67.372Q61.3837,67.9638,60.6344,68.5194Q59.8852,69.0751,59.1096,69.5934Q58.334,70.1116,57.5339,70.5912Q56.7337,71.0707,55.9111,71.5104Q55.0884,71.9502,54.2452,72.349Q53.4019,72.7478,52.5401,73.1048Q51.6783,73.4618,50.8,73.776Q49.9217,74.0903,49.0291,74.3611Q48.1364,74.6318,47.2316,74.8585Q46.3267,75.0852,45.4118,75.2671Q44.4969,75.4491,43.5742,75.586Q42.6515,75.7229,41.7232,75.8143Q40.7948,75.9057,39.8632,75.9515Q38.9315,75.9973,37.9987,75.9973Q37.0658,75.9973,36.1342,75.9515Q35.2025,75.9057,34.2741,75.8143Q33.3458,75.7229,32.4231,75.586Q31.5004,75.4491,30.5855,75.2671Q29.6706,75.0852,28.7657,74.8585Q27.8609,74.6318,26.9682,74.3611Q26.0756,74.0903,25.1973,73.776Q24.319,73.4618,23.4572,73.1048Q22.5954,72.7478,21.7521,72.349Q20.9089,71.9502,20.0862,71.5104Q19.2636,71.0707,18.4635,70.5912Q17.6634,70.1116,16.8877,69.5934Q16.1121,69.0751,15.3629,68.5194Q14.6137,67.9638,13.8926,67.372Q13.1715,66.7802,12.4803,66.1538Q11.7892,65.5273,11.1296,64.8677Q10.47,64.2081,9.84353,63.517Q9.21709,62.8258,8.62532,62.1047Q8.03355,61.3837,7.47787,60.6344Q6.92219,59.8852,6.40395,59.1096Q5.88571,58.334,5.40614,57.5339Q4.92658,56.7337,4.48686,55.9111Q4.04713,55.0884,3.6483,54.2452Q3.24947,53.4019,2.8925,52.5401Q2.53553,51.6783,2.22127,50.8Q1.90702,49.9217,1.63623,49.0291Q1.36545,48.1364,1.1388,47.2316Q0.912143,46.3267,0.73016,45.4118Q0.548177,44.4969,0.411305,43.5742Q0.274433,42.6515,0.183001,41.7232Q0.0915692,40.7948,0.0457982,39.8632Q0.0000271641,38.9315,0.0000271641,37.9987Q0.0000271641,37.0658,0.0457982,36.1342Q0.0915692,35.2025,0.183001,34.2741Q0.274433,33.3458,0.411305,32.4231Q0.548177,31.5004,0.73016,30.5855Q0.912143,29.6706,1.1388,28.7657Q1.36545,27.8609,1.63624,26.9682Q1.90702,26.0756,2.22127,25.1973Q2.53553,24.319,2.8925,23.4572Q3.24947,22.5954,3.6483,21.7521Q4.04713,20.9089,4.48686,20.0862Q4.92658,19.2636,5.40614,18.4635Q5.88571,17.6634,6.40395,16.8877Q6.92219,16.1121,7.47787,15.3629Q8.03355,14.6137,8.62532,13.8926Q9.21709,13.1715,9.84353,12.4803Q10.47,11.7892,11.1296,11.1296Q11.7892,10.47,12.4803,9.84353Q13.1715,9.21709,13.8926,8.62532Q14.6137,8.03355,15.3629,7.47787Q16.1121,6.92219,16.8877,6.40395Q17.6634,5.88571,18.4635,5.40614Q19.2636,4.92658,20.0862,4.48686Q20.9089,4.04713,21.7521,3.6483Q22.5954,3.24947,23.4572,2.8925Q24.319,2.53553,25.1973,2.22127Q26.0756,1.90702,26.9682,1.63623Q27.8609,1.36545,28.7657,1.1388Q29.6706,0.912143,30.5855,0.73016Q31.5004,0.548177,32.4231,0.411305Q33.3458,0.274433,34.2741,0.183001Q35.2025,0.0915692,36.1342,0.0457982Q37.0658,0.0000271641,37.9987,0.0000271641Q38.9315,0.0000271641,39.8632,0.0457982Q40.7948,0.0915692,41.7232,0.183001Q42.6515,0.274433,43.5742,0.411305Q44.4969,0.548177,45.4118,0.73016Q46.3267,0.912143,47.2316,1.1388Q48.1364,1.36545,49.0291,1.63624Q49.9217,1.90702,50.8,2.22127Q51.6783,2.53553,52.5401,2.8925Q53.4019,3.24947,54.2452,3.6483Q55.0884,4.04713,55.9111,4.48686Q56.7337,4.92658,57.5338,5.40614Q58.3339,5.88571,59.1096,6.40395Q59.8852,6.92219,60.6344,7.47787Q61.3836,8.03355,62.1047,8.62532Q62.8258,9.21709,63.517,9.84353Q64.2081,10.47,64.8677,11.1296Q65.5273,11.7892,66.1538,12.4803Q66.7802,13.1715,67.372,13.8926Q67.9638,14.6137,68.5194,15.3629Q69.0751,16.1121,69.5934,16.8877Q70.1116,17.6634,70.5912,18.4635Q71.0707,19.2636,71.5104,20.0862Q71.9502,20.9089,72.349,21.7521Q72.7478,22.5954,73.1048,23.4572Q73.4618,24.319,73.776,25.1973Q74.0903,26.0756,74.3611,26.9682Q74.6318,27.8609,74.8585,28.7657Q75.0852,29.6706,75.2671,30.5855Q75.4491,31.5004,75.586,32.4231Q75.7229,33.3458,75.8143,34.2741Q75.9057,35.2025,75.9515,36.1342Q75.9973,37.0658,75.9973,37.9987Z" fill="#18B970" fill-opacity="1"/></g><g><path d="M37.9987,18.9993C41.3439,18.9993,44.5371,19.6372,47.4983,20.7486L47.4983,1.19698C44.3948,0.399648,41.203,-0.00251961,37.9987,0.0000271641C34.7186,0.0000271641,31.5348,0.415298,28.499,1.19698L28.499,20.7486C31.5344,19.5985,34.7526,19.0059,37.9987,18.9993ZM37.9987,56.998C34.6534,56.998,31.4602,56.3601,28.499,55.2487L28.499,74.8003C31.5348,75.582,34.7186,75.9973,37.9987,75.9973C41.2788,75.9973,44.4625,75.582,47.4983,74.8003L47.4983,55.2487C44.4629,56.3988,41.2447,56.9914,37.9987,56.998ZM56.998,37.9987C56.998,41.3439,56.3601,44.5371,55.2487,47.4983L74.8003,47.4983C75.582,44.4625,75.9973,41.2788,75.9973,37.9987C75.9973,34.7186,75.582,31.5348,74.8003,28.499L55.2487,28.499C56.3987,31.5345,56.9913,34.7526,56.998,37.9987ZM18.9993,37.9987C18.9993,34.6534,19.6358,31.4615,20.7486,28.499L1.19698,28.499C0.399648,31.6025,-0.00252013,34.7943,0.0000271641,37.9987C0.0000271641,41.2788,0.415298,44.4625,1.19698,47.4983L20.7486,47.4983C19.5978,44.4631,19.0052,41.2448,18.9993,37.9987Z" fill="#EDC648" fill-opacity="1"/></g><g><path d="M37.998694824218745,66.49759482421875C22.28349482421875,66.49759482421875,9.49969482421875,53.71379482421875,9.49969482421875,37.998694824218745C9.49969482421875,22.28349482421875,22.28349482421875,9.49969482421875,37.998694824218745,9.49969482421875C53.71379482421875,9.49969482421875,66.49759482421875,22.28349482421875,66.49759482421875,37.998694824218745C66.49759482421875,53.71379482421875,53.71379482421875,66.49759482421875,37.998694824218745,66.49759482421875Z" fill="#18B970" fill-opacity="1"/></g><g><path d="M42.21789013671875,33.9423147265625C42.56349013671875,33.2230647265625,42.74469013671875,32.4359347265625,42.74849013671875,31.6379647265625C42.74849013671875,28.6399647265625,40.31809013671875,26.2095947265625,37.32009013671875,26.2095947265625C34.32210013671875,26.2095947265625,31.89173013671875,28.6399647265625,31.89173013671875,31.6379647265625C31.89173013671875,32.4644347265625,32.09123013671875,33.2406947265625,32.42236013671875,33.9423147265625C29.42847013671875,33.9831647265625,27.03455683671875,36.4432947265625,27.07540618871875,39.4371947265625C27.11625553671875,42.4310947265625,29.57640013671875,44.8249947265625,32.57028013671875,44.7840947265625C33.88395013671875,44.7840947265625,35.07140013671875,44.2996947265625,36.01051013671875,43.5233947265625C35.998300136718754,44.6036947265625,35.796090136718746,46.3908947265625,34.68599013671875,47.6543947265625C33.78624013671875,48.6762947265625,32.38979013671875,49.1946947265625,30.53464013671875,49.1946947265625C29.78514013671875,49.1946947265625,29.17755013671875,49.8022947265625,29.17755013671875,50.5517947265625C29.17755013671875,51.3012947265625,29.78514013671875,51.9088947265625,30.53464013671875,51.9088947265625C33.214900136718754,51.9088947265625,35.30211013671875,51.0755947265625,36.73792013671875,49.430794726562496C38.37459013671875,47.5579947265625,38.69889013671875,45.1097947265625,38.72469013671875,43.6020947265625C39.65019013671875,44.330894726562505,40.80109013671875,44.7840947265625,42.06989013671875,44.7840947265625C45.06379013671875,44.8249947265625,47.52399013671875,42.4310947265625,47.56479013671875,39.4371947265625C47.60569013671875,36.4432947265625,45.21179013671875,33.9831547265625,42.21789013671875,33.9423147265625Z" fill="#FFFFFF" fill-opacity="1"/></g></g></svg>