<svg xmlns="http://www.w3.org/2000/svg" xmlns:xlink="http://www.w3.org/1999/xlink" fill="none" version="1.1" width="29" height="29" viewBox="0 0 29 29"><g style="mix-blend-mode:passthrough"><g style="mix-blend-mode:passthrough"><ellipse cx="14.5" cy="14.5" rx="14.5" ry="14.5" fill="#D8D8D8" fill-opacity="1"/></g><g style="mix-blend-mode:passthrough"><path d="M13.12891,16.5352L15.44922,16.5352C15.17969,13.88672,18.47852,13.55273,18.47852,10.74023C18.47852,8.4082,16.83789,7.236330000000001,14.58789,7.236330000000001C12.92969,7.236330000000001,11.58203,7.99219,10.574219,9.14648L12.05078,10.55273C12.73047,9.767579999999999,13.43359,9.375,14.2832,9.375C15.326170000000001,9.375,15.93555,9.972660000000001,15.93555,10.98047C15.93555,12.84375,12.73047,13.53516,13.12891,16.5352ZM14.30078,21.375C15.214839999999999,21.375,15.88281,20.7305,15.88281,19.793C15.88281,18.837899999999998,15.214839999999999,18.1934,14.30078,18.1934C13.39844,18.1934,12.71289,18.837899999999998,12.71289,19.793C12.71289,20.7305,13.38086,21.375,14.30078,21.375Z" fill="#FFFFFF" fill-opacity="1"/></g></g></svg>