<svg xmlns="http://www.w3.org/2000/svg" xmlns:xlink="http://www.w3.org/1999/xlink" fill="none" version="1.1" width="29" height="29" viewBox="0 0 29 29"><g style="mix-blend-mode:passthrough"><g style="mix-blend-mode:passthrough"><ellipse cx="14.5" cy="14.5" rx="14.5" ry="14.5" fill="#D8D8D8" fill-opacity="1"/></g><g style="mix-blend-mode:passthrough"><path d="M9.269531,22L12.07617,22L13.5,19.0176C13.82227,18.3203,14.12695,17.6113,14.4668,16.791L14.54297,16.791C14.91797,17.6113,15.263670000000001,18.3203,15.58594,19.0176L17.080080000000002,22L20.0332,22L16.28906,15.16797L19.7988,8.5L16.99219,8.5L15.732420000000001,11.30664C15.43945,11.92773,15.152339999999999,12.58398,14.830079999999999,13.42188L14.75977,13.42188C14.361329999999999,12.58398,14.0918,11.92773,13.76953,11.30664L12.43359,8.5L9.462891,8.5L12.99609,15.0625L9.269531,22Z" fill="#FFFFFF" fill-opacity="1"/></g></g></svg>